<?xml version="1.0" standalone="no"?>
<!DOCTYPE svg PUBLIC "-//W3C//DTD SVG 20010904//EN"
 "http://www.w3.org/TR/2001/REC-SVG-20010904/DTD/svg10.dtd">
<svg version="1.0" xmlns="http://www.w3.org/2000/svg"
 width="818.000000pt" height="818.000000pt" viewBox="0 0 818.000000 818.000000"
 preserveAspectRatio="xMidYMid meet">
<metadata>
Created by potrace 1.14, written by Peter Selinger 2001-2017
</metadata>
<g transform="translate(0.000000,818.000000) scale(0.100000,-0.100000)"
fill="#000000" stroke="none">
<path d="M3950 7189 c-25 -4 -67 -11 -95 -15 -27 -3 -54 -10 -60 -14 -5 -5
-41 -16 -80 -25 -38 -10 -74 -21 -80 -26 -5 -5 -17 -9 -28 -9 -37 0 -206 -90
-279 -149 -99 -80 -157 -147 -246 -286 -14 -22 -46 -90 -55 -117 -5 -15 -11
-16 -34 -7 -59 24 -70 27 -133 38 -111 18 -222 22 -310 11 -47 -6 -104 -13
-127 -16 -24 -4 -43 -10 -43 -14 0 -5 -19 -11 -42 -15 -23 -4 -49 -11 -58 -15
-8 -4 -28 -13 -45 -20 -33 -13 -66 -30 -135 -68 -25 -14 -57 -31 -72 -39 -16
-8 -28 -18 -28 -22 0 -3 -15 -15 -32 -26 -32 -18 -66 -47 -133 -110 -17 -16
-56 -53 -86 -81 -46 -43 -117 -118 -190 -201 -10 -12 -19 -26 -19 -31 0 -5
-11 -19 -25 -32 -14 -13 -25 -28 -25 -33 0 -6 -7 -17 -15 -26 -15 -15 -70
-103 -104 -166 -9 -16 -18 -32 -21 -35 -15 -15 -60 -120 -66 -152 -3 -21 -10
-38 -14 -38 -4 0 -10 -8 -13 -17 -48 -152 -78 -308 -96 -497 -6 -73 -5 -72
-76 -103 -22 -9 -42 -19 -45 -23 -3 -3 -25 -18 -50 -34 -48 -31 -210 -192
-210 -209 0 -5 -10 -19 -23 -31 -24 -24 -40 -50 -68 -107 -10 -19 -25 -41 -33
-49 -9 -7 -16 -17 -16 -22 0 -6 -16 -45 -36 -87 -44 -94 -74 -178 -74 -208 0
-12 -4 -24 -9 -27 -5 -3 -11 -23 -14 -43 -3 -21 -10 -58 -17 -83 -14 -52 -8
-304 8 -323 5 -7 12 -30 15 -52 8 -65 43 -200 58 -220 3 -5 10 -21 14 -35 8
-25 45 -113 67 -157 6 -13 15 -23 19 -23 4 0 10 -14 14 -30 4 -17 11 -30 16
-30 5 0 9 -5 9 -10 0 -14 64 -114 88 -138 11 -11 30 -38 42 -61 13 -22 27 -41
32 -41 11 0 10 -34 -1 -45 -22 -24 -45 -316 -32 -427 13 -121 46 -266 64 -284
4 -4 7 -16 7 -26 0 -10 4 -18 9 -18 5 0 12 -15 15 -33 3 -18 13 -43 22 -56 9
-13 31 -51 49 -86 29 -56 54 -91 92 -131 7 -7 13 -15 13 -18 0 -30 203 -217
277 -256 26 -14 50 -27 53 -31 10 -10 78 -39 93 -39 9 0 18 -4 21 -8 3 -5 40
-16 83 -26 43 -9 97 -21 121 -26 23 -6 123 -10 221 -10 l179 0 38 -47 c21 -25
58 -65 83 -87 25 -23 56 -51 69 -63 12 -13 27 -23 31 -23 4 0 21 -11 37 -25
16 -14 32 -25 36 -25 4 0 13 -6 21 -14 15 -16 128 -77 242 -133 39 -19 77 -38
85 -42 9 -5 31 -12 50 -15 35 -7 56 -15 107 -38 40 -19 542 -18 603 1 25 8 50
18 55 22 6 5 30 11 53 15 23 4 42 10 42 14 0 4 12 10 28 13 48 9 112 27 130
36 9 4 31 16 49 25 17 9 37 16 44 16 7 0 47 -22 91 -50 43 -27 90 -53 106 -56
15 -4 38 -14 52 -23 27 -18 153 -59 261 -86 78 -19 366 -24 421 -6 18 6 60 18
93 27 59 16 119 38 141 52 61 38 155 106 181 131 18 17 34 31 37 31 6 0 21 12
90 72 38 34 46 34 95 4 79 -50 232 -81 366 -73 105 6 236 26 249 38 6 5 20 9
32 9 13 0 25 4 28 9 3 5 18 12 33 16 38 9 173 76 173 85 0 4 10 10 23 14 25 6
53 29 145 117 34 33 62 66 62 72 0 7 8 17 18 23 9 7 26 29 37 50 11 22 22 41
25 44 4 4 105 207 130 260 4 8 27 22 51 31 77 27 84 30 101 40 10 5 26 9 37 9
11 0 26 6 33 13 7 7 33 21 58 32 25 11 47 22 50 25 3 3 26 16 51 30 94 51 216
169 287 275 25 39 48 72 52 75 11 10 70 144 70 159 0 6 5 11 10 11 6 0 10 13
10 28 0 15 4 32 9 38 22 22 55 245 54 359 -2 222 -52 522 -104 627 -5 10 -9
27 -9 37 0 11 -4 23 -10 26 -12 7 -14 72 -2 77 24 10 76 155 93 258 17 107 23
430 9 515 -16 97 -39 194 -56 232 -8 17 -14 37 -14 45 0 8 -4 18 -8 24 -5 5
-17 36 -27 69 -11 33 -27 71 -36 85 -9 14 -20 40 -24 59 -4 19 -16 51 -28 70
-11 20 -36 68 -57 106 -20 39 -46 86 -58 105 -12 19 -25 42 -29 50 -3 8 -13
22 -22 31 -9 8 -25 28 -36 43 -11 16 -26 34 -33 40 -7 6 -18 17 -25 24 -11 12
-74 72 -101 97 -6 6 -40 32 -76 58 -36 27 -72 53 -81 60 -25 19 -71 45 -109
62 -19 9 -43 20 -52 25 -10 6 -25 10 -33 10 -8 0 -15 4 -15 9 0 5 -16 12 -35
15 -19 4 -35 11 -35 15 0 5 -28 15 -62 22 -69 15 -103 42 -113 90 -4 16 -11
29 -16 29 -5 0 -9 9 -9 20 0 11 -4 20 -10 20 -5 0 -10 6 -10 14 0 17 -38 104
-49 110 -4 3 -13 23 -21 45 -7 23 -17 41 -21 41 -4 0 -10 13 -14 29 -3 15 -15
38 -25 49 -11 12 -20 25 -20 30 0 12 -80 126 -91 130 -5 2 -9 9 -9 16 0 25
-238 236 -267 236 -6 0 -16 6 -22 14 -7 8 -26 21 -44 30 -18 9 -39 21 -47 25
-30 18 -88 41 -103 41 -9 0 -19 5 -22 10 -3 6 -16 10 -29 10 -12 0 -26 4 -32
9 -5 4 -40 15 -79 23 -38 9 -95 21 -125 28 -69 15 -268 2 -295 -20 -5 -5 -27
-11 -48 -15 -36 -7 -39 -5 -124 76 -173 167 -206 192 -343 262 -41 21 -79 42
-85 46 -5 5 -26 12 -45 16 -19 4 -39 10 -45 14 -5 4 -35 15 -65 25 -30 10 -64
22 -75 26 -20 9 -39 12 -155 30 -75 11 -176 11 -240 -1z m280 -264 c25 -4 50
-11 55 -15 6 -4 26 -11 45 -15 19 -4 41 -11 50 -15 40 -20 92 -40 103 -40 7 0
23 -9 37 -20 14 -11 31 -20 38 -20 7 0 31 -13 54 -30 22 -16 45 -30 50 -30 4
0 16 -8 26 -17 10 -10 36 -31 58 -48 51 -40 128 -108 133 -118 3 -8 16 -21 86
-87 41 -39 174 -66 200 -41 20 19 114 35 205 35 91 0 230 -21 246 -37 4 -4 18
-7 30 -7 13 0 25 -4 29 -9 3 -5 19 -12 35 -16 17 -4 30 -11 30 -16 0 -5 6 -9
12 -9 22 0 122 -54 144 -77 12 -13 24 -23 28 -23 7 0 68 -53 98 -85 11 -11 30
-31 42 -45 13 -14 36 -45 51 -70 16 -25 31 -47 34 -50 4 -3 32 -57 64 -120 31
-63 67 -133 78 -155 12 -22 26 -48 31 -59 5 -10 13 -48 17 -85 11 -104 54
-141 182 -156 35 -4 70 -11 79 -15 17 -9 67 -30 120 -50 19 -8 49 -23 65 -35
17 -12 51 -32 78 -43 26 -12 47 -26 47 -30 0 -4 15 -16 33 -26 38 -22 43 -27
123 -104 74 -71 131 -148 170 -227 16 -33 32 -61 37 -63 4 -2 7 -10 7 -17 0
-7 20 -53 45 -101 25 -49 50 -107 56 -129 5 -22 15 -51 21 -65 6 -14 15 -34
19 -45 16 -36 31 -118 39 -210 4 -49 13 -126 20 -170 13 -86 9 -244 -7 -285
-6 -14 -16 -43 -23 -65 -7 -22 -34 -86 -61 -143 -40 -81 -47 -106 -39 -121 5
-11 10 -31 10 -45 0 -14 5 -28 10 -31 6 -3 10 -14 10 -23 0 -9 7 -30 15 -46 8
-15 15 -36 15 -45 0 -9 4 -21 9 -26 4 -6 16 -46 25 -90 9 -44 21 -93 27 -110
18 -58 31 -319 20 -420 -6 -53 -15 -103 -20 -113 -5 -9 -14 -35 -20 -57 -14
-46 -72 -168 -83 -173 -5 -2 -8 -8 -8 -14 0 -5 -6 -15 -12 -23 -7 -7 -22 -25
-33 -41 -29 -41 -111 -124 -123 -124 -5 0 -12 -7 -16 -15 -3 -8 -12 -15 -21
-15 -8 0 -15 -3 -15 -7 0 -5 -10 -13 -23 -19 -12 -6 -44 -23 -70 -38 -26 -14
-54 -26 -60 -26 -7 0 -39 -13 -72 -30 -33 -16 -68 -30 -77 -30 -15 0 -62 -40
-99 -85 -9 -11 -35 -35 -57 -53 -22 -18 -43 -43 -46 -56 -5 -19 -41 -86 -136
-252 -38 -66 -158 -176 -212 -196 -16 -5 -28 -13 -28 -18 0 -4 -39 -19 -87
-35 -49 -15 -96 -31 -105 -36 -10 -5 -62 -14 -116 -20 -104 -12 -263 1 -270
21 -2 6 -10 10 -18 10 -16 0 -42 14 -98 53 -61 42 -117 38 -192 -15 -32 -23
-73 -53 -89 -67 -17 -14 -51 -42 -75 -61 -25 -19 -56 -46 -70 -59 -33 -33
-153 -95 -221 -115 -30 -9 -101 -19 -159 -23 -175 -9 -347 20 -452 77 -10 6
-25 10 -33 10 -8 0 -15 4 -15 9 0 5 -14 13 -32 16 -17 4 -40 15 -51 25 -10 10
-30 21 -44 25 -28 7 -103 54 -103 65 0 4 -11 12 -25 18 -15 7 -25 8 -25 2 0
-6 -5 -10 -12 -10 -6 0 -19 -6 -27 -14 -14 -12 -71 -30 -186 -57 -22 -5 -59
-18 -82 -29 -23 -11 -60 -23 -83 -26 -22 -4 -43 -11 -46 -15 -3 -5 -18 -9 -34
-9 -16 0 -41 -5 -56 -10 -38 -15 -352 -14 -406 0 -166 45 -158 41 -320 120
-49 23 -88 46 -88 51 0 5 -6 9 -14 9 -7 0 -30 14 -51 30 -21 17 -42 30 -47 30
-19 0 -218 198 -218 217 0 7 -4 13 -10 13 -5 0 -10 9 -10 20 0 31 -44 70 -79
70 -16 0 -58 -7 -93 -16 -50 -13 -97 -15 -238 -11 -169 5 -195 9 -280 45 -67
29 -132 64 -150 82 -8 8 -36 31 -61 50 -26 19 -62 56 -80 82 -19 26 -37 47
-41 48 -7 0 -78 105 -78 115 0 2 -11 21 -25 41 -14 20 -25 43 -25 51 0 8 -6
29 -13 46 -62 146 -82 314 -56 476 11 74 38 171 51 186 20 23 -2 101 -41 142
-12 12 -21 26 -21 32 0 5 -7 11 -15 15 -8 3 -15 12 -15 21 0 8 -4 15 -10 15
-5 0 -10 7 -10 15 0 8 -4 15 -10 15 -5 0 -10 6 -10 13 0 7 -10 23 -23 37 -46
51 -112 167 -147 260 -8 19 -20 44 -27 55 -7 11 -13 30 -13 42 0 13 -4 23 -10
23 -5 0 -10 7 -10 16 0 9 -7 37 -15 63 -29 94 -37 157 -32 266 5 114 20 202
37 219 6 6 10 16 10 24 0 7 18 51 40 98 22 47 40 87 40 89 0 7 72 119 80 125
4 3 9 10 11 16 7 19 71 97 115 139 38 36 175 116 198 115 16 0 86 33 86 41 0
4 7 14 15 23 14 14 37 153 65 391 16 142 42 231 106 371 13 28 24 56 24 62 0
7 4 12 9 12 5 0 17 17 26 38 16 33 111 179 125 192 4 3 19 23 36 45 37 51 224
238 289 290 28 22 52 43 53 48 2 4 9 7 16 7 7 0 21 9 31 20 29 32 162 99 265
133 104 35 211 50 305 43 154 -10 260 -23 295 -34 55 -19 94 -15 126 13 16 14
36 27 44 30 8 3 23 25 33 50 11 25 23 45 28 45 5 0 13 8 16 18 18 48 118 184
174 235 87 80 107 97 114 97 4 0 30 11 58 24 29 13 63 27 77 31 14 4 30 11 35
14 6 4 30 13 55 20 25 7 68 18 95 26 28 8 70 18 95 23 47 11 213 9 290 -3z"/>
<path d="M3905 4961 c-11 -5 -76 -11 -144 -15 -68 -3 -129 -10 -135 -15 -6 -5
-27 -11 -46 -14 -69 -11 -126 -26 -172 -46 -26 -11 -63 -23 -83 -27 -19 -3
-38 -10 -41 -15 -3 -5 -14 -9 -24 -9 -10 0 -20 -3 -22 -7 -1 -5 -41 -28 -88
-52 -47 -24 -102 -56 -124 -70 -21 -14 -60 -39 -86 -56 -53 -34 -93 -66 -245
-200 -81 -71 -75 -65 -150 -150 -50 -57 -115 -140 -212 -275 -10 -14 -24 -36
-30 -50 -6 -14 -23 -50 -37 -80 -14 -30 -33 -77 -42 -105 -9 -27 -20 -52 -23
-55 -4 -3 -12 -34 -19 -70 -6 -36 -16 -87 -23 -115 -20 -85 -13 -287 11 -320
4 -5 10 -35 14 -65 4 -30 11 -59 15 -65 4 -5 13 -28 20 -50 18 -57 92 -206
113 -229 10 -11 18 -23 18 -26 0 -4 10 -18 23 -32 37 -42 55 -65 67 -87 6 -12
17 -21 25 -21 8 0 15 -4 15 -9 0 -40 237 -199 378 -252 12 -5 32 -13 45 -19
68 -29 101 -40 118 -40 11 0 19 -4 19 -9 0 -5 21 -12 46 -16 26 -4 54 -10 63
-15 41 -20 70 -29 121 -39 30 -5 73 -14 95 -20 22 -5 69 -17 105 -26 127 -31
296 -63 395 -74 33 -3 66 -10 73 -14 7 -5 119 -12 250 -18 249 -9 628 3 646
21 6 6 29 10 53 10 23 0 62 4 85 10 24 5 75 14 113 19 83 12 148 28 305 72 19
6 53 15 75 20 22 5 63 21 91 34 28 14 58 25 67 25 10 0 17 5 17 10 0 6 7 10
17 10 22 0 201 121 263 178 72 68 73 69 95 97 11 14 32 41 47 58 15 18 28 35
28 40 0 10 53 91 63 95 4 2 7 12 7 22 0 10 4 21 9 24 5 4 12 24 16 46 4 22 11
42 16 46 5 3 9 18 9 33 0 15 5 32 10 37 28 28 35 369 10 474 -17 71 -51 185
-60 202 -6 10 -10 24 -10 32 0 8 -3 16 -8 18 -4 2 -23 35 -42 73 -19 39 -37
72 -41 75 -3 3 -26 37 -50 75 -24 39 -52 79 -61 90 -18 20 -53 63 -113 141
-71 91 -170 194 -261 270 -25 21 -54 46 -63 54 -9 8 -30 22 -46 30 -17 8 -46
26 -65 41 -19 14 -42 29 -50 32 -8 4 -42 22 -75 41 -59 33 -230 119 -270 136
-11 5 -45 20 -75 33 -30 13 -89 32 -130 42 -41 10 -80 22 -85 26 -10 8 -75 21
-195 40 -30 5 -115 14 -189 20 -74 5 -143 14 -152 20 -21 11 -256 11 -284 0z
m395 -272 c52 -4 120 -13 150 -18 30 -6 84 -15 120 -20 71 -11 135 -28 162
-42 10 -5 25 -9 34 -9 9 0 30 -6 47 -14 18 -7 63 -26 100 -42 38 -15 97 -42
130 -60 34 -18 78 -41 97 -50 51 -26 164 -97 168 -106 2 -4 8 -8 14 -8 17 0
142 -104 203 -170 106 -114 175 -195 202 -237 9 -15 20 -30 24 -33 3 -3 19
-25 35 -49 16 -24 37 -56 46 -70 10 -14 21 -33 25 -41 3 -8 9 -17 12 -20 6 -5
19 -31 61 -122 11 -25 24 -64 27 -85 3 -21 11 -41 17 -45 16 -11 15 -383 -1
-399 -7 -7 -13 -22 -13 -33 -1 -36 -80 -182 -131 -241 -59 -69 -143 -144 -184
-166 -22 -11 -49 -29 -60 -39 -11 -10 -33 -22 -50 -26 -16 -4 -34 -10 -40 -14
-5 -4 -30 -15 -55 -24 -25 -8 -65 -23 -90 -32 -25 -9 -76 -23 -115 -31 -38 -8
-88 -18 -110 -23 -93 -22 -205 -41 -270 -47 -38 -3 -76 -11 -84 -17 -20 -16
-762 -16 -782 1 -8 6 -41 13 -74 16 -88 8 -199 27 -205 36 -3 5 -25 11 -50 15
-102 14 -189 31 -196 39 -4 4 -21 7 -39 7 -17 0 -35 4 -40 9 -6 5 -32 14 -60
20 -27 5 -68 15 -90 21 -22 6 -58 16 -80 21 -22 5 -58 18 -80 28 -22 10 -51
22 -65 25 -14 4 -34 11 -45 15 -84 35 -105 45 -105 51 0 5 -10 10 -23 14 -12
3 -32 14 -44 26 -12 11 -27 20 -32 20 -13 0 -191 176 -191 189 0 5 -6 16 -13
23 -21 21 -77 125 -77 143 0 15 -19 56 -31 65 -15 12 -32 144 -33 255 0 127
16 230 44 281 10 16 21 45 25 62 3 18 11 34 16 37 5 4 9 15 9 26 0 10 3 19 8
19 4 0 23 28 41 63 19 34 37 64 41 67 3 3 19 23 36 44 79 106 317 346 343 346
4 0 16 9 27 21 34 38 206 151 280 185 33 14 81 37 107 50 27 13 57 24 67 24
11 0 21 4 24 9 3 4 29 11 58 15 29 4 78 16 109 27 103 36 371 43 649 18z"/>
<path d="M3040 3830 c-8 -5 -25 -10 -37 -10 -13 0 -23 -4 -23 -9 0 -5 -16 -12
-35 -15 -19 -4 -35 -11 -35 -15 0 -4 -11 -21 -25 -37 -45 -53 -58 -91 -57
-181 1 -76 4 -88 32 -135 32 -52 54 -78 64 -78 4 0 30 -12 59 -26 69 -34 144
-42 187 -20 18 9 37 16 42 16 22 0 88 53 102 82 35 75 48 130 38 157 -6 14
-13 51 -16 81 -3 30 -10 56 -16 58 -5 2 -10 9 -10 15 0 42 -150 127 -223 127
-18 0 -39 -5 -47 -10z"/>
<path d="M5260 3707 c-65 -17 -136 -73 -160 -126 -6 -14 -18 -39 -26 -54 -21
-43 -17 -107 11 -165 50 -104 127 -160 231 -169 103 -9 146 2 198 51 25 24 46
51 46 59 0 9 6 17 13 20 8 2 12 33 12 105 0 67 -4 105 -12 114 -7 6 -13 20
-13 29 0 28 -95 117 -137 128 -65 18 -116 20 -163 8z"/>
<path d="M4057 3283 c-18 -9 -27 -22 -27 -38 0 -26 8 -35 69 -79 l41 -30 0
-116 c0 -103 2 -119 20 -138 12 -12 29 -22 39 -22 37 0 45 27 45 148 l1 115
45 24 c24 13 47 27 50 32 3 5 15 11 27 15 44 14 42 91 -2 102 -18 4 -37 -1
-63 -18 -84 -55 -113 -56 -165 -8 -27 26 -50 29 -80 13z"/>
<path d="M6275 4744 c-22 -5 -52 -18 -103 -43 -19 -9 -40 -31 -49 -49 -15 -32
-15 -36 2 -65 10 -18 23 -35 28 -39 6 -4 4 -19 -6 -41 -24 -51 -21 -68 23
-135 22 -33 40 -63 40 -66 0 -4 5 -12 10 -19 37 -44 75 -98 98 -139 15 -27 35
-51 45 -54 9 -3 17 -11 17 -18 0 -17 106 -115 165 -152 111 -70 213 -104 311
-104 59 0 155 21 195 43 43 23 139 102 139 115 0 6 3 12 8 12 10 0 30 48 38
90 3 19 10 45 16 57 11 21 9 45 -12 141 -20 93 -82 182 -195 280 -8 6 -18 12
-24 12 -5 0 -11 4 -13 9 -4 11 -78 57 -108 66 -14 4 -36 15 -50 25 -14 10 -41
21 -60 24 -19 4 -44 11 -55 16 -53 22 -124 32 -275 35 -91 2 -174 2 -185 -1z
m330 -184 c17 -5 51 -12 78 -16 26 -3 50 -10 53 -15 3 -5 14 -9 25 -9 10 0 19
-4 19 -8 0 -5 19 -16 42 -27 64 -28 150 -92 185 -138 18 -23 37 -47 43 -54 5
-7 10 -19 10 -27 0 -8 5 -18 10 -21 23 -14 4 -155 -21 -155 -4 0 -10 -8 -13
-18 -3 -9 -23 -26 -43 -36 -21 -10 -46 -22 -55 -27 -37 -19 -152 -5 -225 27
-17 8 -34 14 -38 14 -19 0 -185 149 -185 166 0 6 -13 27 -30 45 -16 19 -30 40
-30 47 0 6 -4 12 -8 12 -5 0 -18 18 -31 40 -12 22 -27 45 -34 53 -7 7 -23 34
-37 61 -14 26 -33 54 -42 60 -17 12 -16 14 5 24 12 6 40 13 62 14 67 5 228 -3
260 -12z"/>
<path d="M1838 4714 c-3 -3 -37 -9 -74 -15 -79 -11 -254 -74 -254 -91 0 -5 -5
-8 -11 -8 -7 0 -40 -18 -75 -40 -35 -22 -66 -40 -68 -40 -12 0 -188 -168 -236
-226 -37 -44 -90 -123 -90 -134 0 -5 -10 -26 -22 -47 -20 -34 -22 -52 -23
-161 0 -77 4 -125 11 -130 6 -4 17 -21 24 -38 8 -17 26 -40 42 -50 15 -11 28
-22 28 -26 0 -5 7 -8 15 -8 7 0 18 -6 22 -13 24 -40 297 -90 317 -58 3 4 32
11 66 14 35 4 75 16 97 30 21 12 52 29 68 37 17 8 45 29 63 47 18 18 36 33 40
33 9 0 62 66 62 78 0 5 7 15 15 22 9 7 30 43 47 79 17 36 36 73 43 81 6 8 20
42 30 75 17 59 26 82 44 128 5 12 17 49 26 82 9 33 21 68 26 77 26 51 -15 127
-69 128 -22 0 -22 1 -7 30 8 16 15 38 15 50 0 34 -29 80 -50 80 -10 0 -22 5
-25 10 -6 10 -88 14 -97 4z m85 -180 c3 -3 -3 -20 -13 -38 -9 -18 -21 -52 -25
-77 -4 -24 -15 -58 -25 -75 -9 -17 -20 -51 -24 -77 -4 -26 -10 -47 -14 -47 -4
0 -16 -27 -25 -60 -10 -33 -22 -60 -28 -60 -5 0 -9 -7 -9 -17 0 -9 -11 -31
-25 -49 -14 -18 -25 -37 -25 -43 0 -22 -143 -151 -167 -151 -7 0 -23 -5 -36
-12 -12 -6 -30 -15 -39 -20 -25 -11 -186 -10 -193 2 -3 6 -14 10 -24 10 -9 0
-35 16 -57 35 -39 35 -39 36 -38 105 0 50 5 75 17 88 9 10 17 24 17 31 0 6 4
17 10 24 16 19 89 120 92 127 6 12 184 157 223 181 22 13 72 40 110 58 121 58
157 69 231 70 33 1 63 -2 67 -5z"/>
</g>
</svg>
